<svg id="Layer_1" data-name="Layer 1" xmlns="http://www.w3.org/2000/svg" viewBox="0 0 80 20"><defs><style>.cls-1{fill:#ffa822;}.cls-2{fill:#ff8983;}.cls-3{fill:#fff;}.cls-4{fill:#333;}</style></defs><title>Carded Logo</title><rect class="cls-1" x="5.12" y="1" width="7.94" height="15.88" rx="1" ry="1"/><path class="cls-2" d="M9.3,3h5.94a1.12,1.12,0,0,1,1.12,1.12V18a1.13,1.13,0,0,1-1.12,1.13H9.3A1.13,1.13,0,0,1,8.17,18V4.12A1.13,1.13,0,0,1,9.3,3Z"/><path class="cls-3" d="M15.24,3.12a1,1,0,0,1,1,1V18a1,1,0,0,1-1,1H9.3a1,1,0,0,1-1-1V4.12a1,1,0,0,1,1-1h5.94m0-.25H9.3A1.25,1.25,0,0,0,8.05,4.12V18A1.25,1.25,0,0,0,9.3,19.25h5.94A1.25,1.25,0,0,0,16.49,18V4.12a1.25,1.25,0,0,0-1.25-1.25Z"/><path class="cls-4" d="M20.68,14.32A5.91,5.91,0,0,1,19,10a5.91,5.91,0,0,1,1.65-4.32A5.56,5.56,0,0,1,24.82,4a5.4,5.4,0,0,1,3.91,1.39,5.47,5.47,0,0,1,1.6,3.67l-2.2.1a3.67,3.67,0,0,0-1-2.27A3.07,3.07,0,0,0,24.82,6,3.11,3.11,0,0,0,22.35,7.1a4.25,4.25,0,0,0-.94,2.9,4.25,4.25,0,0,0,.94,2.9A3.11,3.11,0,0,0,24.82,14a3.07,3.07,0,0,0,2.34-.87,3.67,3.67,0,0,0,1-2.27l2.2.1a5.42,5.42,0,0,1-1.6,3.66A5.36,5.36,0,0,1,24.82,16,5.56,5.56,0,0,1,20.68,14.32Z"/><path class="cls-4" d="M38.73,10.59v3.23c0,.41.19.62.57.62a1.46,1.46,0,0,0,.68-.17v1.18a2.38,2.38,0,0,1-1.52.51,1.62,1.62,0,0,1-1.71-1.41,2.36,2.36,0,0,1-1.08,1.06A3.72,3.72,0,0,1,34,16a3.07,3.07,0,0,1-2-.59,2,2,0,0,1-.73-1.65,2,2,0,0,1,.79-1.67,5.79,5.79,0,0,1,2.29-.88l2.22-.44v-.18a1.57,1.57,0,0,0-.35-1.07,1.4,1.4,0,0,0-1.06-.38,1.53,1.53,0,0,0-1.6,1.34l-2-.18a3.22,3.22,0,0,1,1.18-2,3.87,3.87,0,0,1,2.51-.76,3.8,3.8,0,0,1,2.54.78A2.88,2.88,0,0,1,38.73,10.59Zm-2.15,1.69v-.21l-1.52.33c-.39.09-.68.16-.87.22a1.53,1.53,0,0,0-.52.33.85.85,0,0,0-.24.63.79.79,0,0,0,.29.64,1.28,1.28,0,0,0,.83.24A1.93,1.93,0,0,0,36,13.85,2.2,2.2,0,0,0,36.58,12.28Z"/><path class="cls-4" d="M46.62,7.8l-.17,2.05a2.66,2.66,0,0,0-1.32-.35,1.75,1.75,0,0,0-1.38.6,2.47,2.47,0,0,0-.52,1.68v4H41V7.69h2.21V9.23A2.65,2.65,0,0,1,44.07,8a2.11,2.11,0,0,1,1.41-.51A1.72,1.72,0,0,1,46.62,7.8Z"/><path class="cls-4" d="M53.41,15.78V14.24a2.67,2.67,0,0,1-1,1.26,3.06,3.06,0,0,1-1.76.5,3.28,3.28,0,0,1-2.7-1.19,4.81,4.81,0,0,1-1-3.07,4.83,4.83,0,0,1,1-3.07,3.26,3.26,0,0,1,2.7-1.2A3.06,3.06,0,0,1,52.38,8a2.65,2.65,0,0,1,1,1.29v-5h2.2V15.78Zm0-3.89v-.31a2.49,2.49,0,0,0-.6-1.74,2,2,0,0,0-1.55-.65,1.86,1.86,0,0,0-1.55.69,2.94,2.94,0,0,0-.54,1.86,2.92,2.92,0,0,0,.54,1.86,1.87,1.87,0,0,0,1.55.67,2,2,0,0,0,1.55-.64A2.45,2.45,0,0,0,53.43,11.89Z"/><path class="cls-4" d="M63.39,13l1.78.19a3.51,3.51,0,0,1-1.33,2.11,4.2,4.2,0,0,1-2.56.75,4.34,4.34,0,0,1-3.09-1.13,4,4,0,0,1-1.2-3A4.28,4.28,0,0,1,58.2,8.71a4,4,0,0,1,3-1.24,3.81,3.81,0,0,1,3,1.14,4.13,4.13,0,0,1,1,2.89v.79H59.15a2.08,2.08,0,0,0,.68,1.47,2.17,2.17,0,0,0,1.52.57A2,2,0,0,0,63.39,13Zm-4.2-2h3.89a2.2,2.2,0,0,0-.53-1.31,1.73,1.73,0,0,0-1.34-.53A2,2,0,0,0,59.19,10.92Z"/><path class="cls-4" d="M72.67,15.78V14.24a2.59,2.59,0,0,1-1,1.26,3.09,3.09,0,0,1-1.76.5,3.26,3.26,0,0,1-2.7-1.19,4.75,4.75,0,0,1-1-3.07,4.77,4.77,0,0,1,1-3.07,3.24,3.24,0,0,1,2.7-1.2A3.08,3.08,0,0,1,71.65,8a2.58,2.58,0,0,1,1,1.29v-5h2.21V15.78Zm0-3.89v-.31a2.53,2.53,0,0,0-.59-1.74,2,2,0,0,0-1.55-.65A1.84,1.84,0,0,0,69,9.88a2.88,2.88,0,0,0-.55,1.86A2.86,2.86,0,0,0,69,13.6a1.86,1.86,0,0,0,1.55.67,2,2,0,0,0,1.55-.64A2.49,2.49,0,0,0,72.69,11.89Z"/></svg>